<svg width="321.5" height="110" xmlns="http://www.w3.org/2000/svg">
 <metadata>image/svg+xml</metadata>

 <g>
  <title>background</title>
  <rect x="-1" y="-1" width="323.5" height="112" id="canvas_background" fill="none"/>
 </g>
 <g>
  <title>Layer 1</title>
  <path d="m13.42938,43.69958c0,-6.71711 0,-7.95462 -0.08817,-9.37054c-0.08845,-1.50371 -0.44111,-2.20978 -1.90016,-2.5175c-0.35398,-0.08968 -1.10536,-0.13376 -1.72365,-0.13376c-0.48584,0 -0.75137,-0.08873 -0.75137,-0.39863c0,-0.30933 0.3097,-0.39645 0.97132,-0.39645c2.34287,0 5.12751,0.13319 6.36502,0.13319c1.41403,0 10.21349,0 11.04416,-0.04626c0.8402,-0.08684 1.54712,-0.17699 1.9011,-0.26543c0.22079,-0.04342 0.48623,-0.17473 0.70702,-0.17473c0.22041,0 0.26544,0.17473 0.26544,0.39693c0,0.30877 -0.22164,0.83879 -0.35436,2.87243c-0.04389,0.44158 -0.13197,2.38818 -0.22088,2.91773c-0.04456,0.21938 -0.13272,0.48481 -0.44253,0.48481c-0.30876,0 -0.3973,-0.21928 -0.3973,-0.618c0,-0.30923 -0.0438,-1.06099 -0.26544,-1.59055c-0.30877,-0.79782 -0.75034,-1.32718 -2.96021,-1.59149c-0.75176,-0.08873 -5.39088,-0.17557 -6.2763,-0.17557c-0.22078,0 -0.30876,0.13083 -0.30876,0.44007l0,11.18575c0,0.30801 0.04474,0.48632 0.30876,0.48632c0.97227,0 6.05541,0 7.0711,-0.08968c1.06099,-0.08873 1.72364,-0.22163 2.12199,-0.66189c0.30923,-0.35483 0.48622,-0.57571 0.70654,-0.57571c0.17699,0 0.30971,0.08967 0.30971,0.35398c0,0.26553 -0.22079,0.9732 -0.35351,3.2264c-0.08798,0.88495 -0.17652,2.65249 -0.17652,2.9621c0,0.35257 0,0.84021 -0.39778,0.84021c-0.30923,0 -0.3973,-0.17699 -0.3973,-0.39778c-0.04522,-0.44243 -0.04522,-1.01852 -0.17699,-1.59338c-0.22079,-0.88268 -0.84068,-1.54713 -2.47503,-1.72365c-0.83973,-0.08778 -5.2153,-0.13092 -6.27535,-0.13092c-0.22079,0 -0.26543,0.17557 -0.26543,0.44016l0,3.49354c0,1.50182 -0.0438,5.56928 0,6.85021c0.08807,3.04895 0.79593,3.71349 5.30402,3.71349c1.14879,0 3.00553,0 4.15336,-0.52956c1.14878,-0.53097 1.68023,-1.45934 1.98984,-3.27266c0.08798,-0.48405 0.17652,-0.66104 0.48528,-0.66104c0.35351,0 0.35351,0.35162 0.35351,0.79414c0,1.01757 -0.35351,4.02215 -0.57382,4.90757c-0.31018,1.14878 -0.70749,1.14878 -2.38724,1.14878c-6.67181,0 -9.63768,-0.26647 -12.24297,-0.26647c-1.01569,0 -3.80033,0.13328 -5.56739,0.13328c-0.57524,0 -0.88401,-0.13328 -0.88401,-0.44252c0,-0.22173 0.17699,-0.35266 0.70655,-0.35266c0.66321,0 1.19409,-0.08967 1.59149,-0.17699c0.88353,-0.17831 1.10441,-1.14784 1.28093,-2.43254c0.22041,-1.85486 0.22041,-5.3484 0.22041,-9.41303l0,-7.78094" fill="#bf005f" id="svg_41"/>
  <path d="m45.90109,43.69958c0,-6.71711 0,-7.95462 -0.08844,-9.37054c-0.08713,-1.50371 -0.44158,-2.20978 -1.90017,-2.5175c-0.3535,-0.08968 -1.10441,-0.13376 -1.72364,-0.13376c-0.48623,0 -0.75034,-0.08873 -0.75034,-0.39863c0,-0.30933 0.30923,-0.39645 0.97226,-0.39645c2.34004,0 5.12562,0.13319 6.36314,0.13319c1.81048,0 4.37518,-0.13319 6.40844,-0.13319c5.52303,0 7.51192,1.85674 8.21988,2.51844c0.97226,0.92771 2.20977,2.91679 2.20977,5.25872c0,6.27724 -4.59607,10.6949 -10.87425,10.6949c-0.22079,0 -0.70654,0 -0.92733,-0.04342c-0.22173,-0.04342 -0.53097,-0.08967 -0.53097,-0.39901c0,-0.35265 0.30924,-0.48594 1.23751,-0.48594c2.47409,0 5.92137,-2.78464 5.92137,-7.29198c0,-1.45839 -0.13272,-4.42049 -2.60717,-6.63027c-1.59055,-1.45839 -3.40293,-1.72364 -4.41861,-1.72364c-0.66322,0 -1.32624,0.04248 -1.72459,0.17557c-0.22032,0.08968 -0.35351,0.35398 -0.35351,0.84021l0,17.68009c0,4.06463 0,7.55817 0.22174,9.45834c0.13177,1.23845 0.39778,2.20788 1.7227,2.38629c0.61809,0.08684 1.59149,0.17699 2.25414,0.17699c0.48622,0 0.70796,0.13092 0.70796,0.35266c0,0.30923 -0.35445,0.44252 -0.84068,0.44252c-2.91585,0 -5.70143,-0.13328 -6.84927,-0.13328c-1.01757,0 -3.80221,0.13328 -5.56833,0.13328c-0.5743,0 -0.88401,-0.13328 -0.88401,-0.44252c0,-0.22173 0.17605,-0.35266 0.70702,-0.35266c0.6618,0 1.19314,-0.08967 1.59055,-0.17699c0.88409,-0.17831 1.10441,-1.14784 1.28187,-2.43255c0.22079,-1.85485 0.22079,-5.34839 0.22079,-9.41302l0,-7.78094" fill="#bf005f" id="svg_42"/>
  <path d="m78.84479,43.69958c0,-6.71711 0,-7.95462 -0.08987,-9.37054c-0.08656,-1.50371 -0.52908,-2.25509 -1.50181,-2.47502c-0.48595,-0.1332 -1.061,-0.17699 -1.59055,-0.17699c-0.44252,0 -0.70843,-0.08874 -0.70843,-0.44243c0,-0.26553 0.35398,-0.35266 1.06099,-0.35266c1.68022,0 4.46392,0.13319 5.74674,0.13319c1.10442,0 3.71065,-0.13319 5.39087,-0.13319c0.57335,0 0.92875,0.08684 0.92875,0.35266c0,0.35398 -0.26544,0.44243 -0.70796,0.44243c-0.44101,0 -0.79499,0.04342 -1.32624,0.13375c-1.19315,0.21928 -1.54713,0.97227 -1.63397,2.5175c-0.08892,1.41592 -0.08892,2.65343 -0.08892,9.37055l0,7.78094c0,4.2874 0,7.77905 0.17567,9.67544c0.13357,1.19315 0.44252,1.98795 1.76895,2.16635c0.618,0.08685 1.59055,0.177 2.25414,0.177c0.48623,0 0.70711,0.13092 0.70711,0.35265c0,0.30924 -0.3536,0.44252 -0.84068,0.44252c-2.91679,0 -5.70048,-0.13328 -6.89269,-0.13328c-1.01662,0 -3.80032,0.13328 -5.56833,0.13328c-0.57477,0 -0.884,-0.13328 -0.884,-0.44252c0,-0.22173 0.17651,-0.35265 0.70701,-0.35265c0.6619,0 1.19315,-0.08968 1.59055,-0.177c0.884,-0.17831 1.14972,-0.92874 1.28093,-2.20977c0.22174,-1.8558 0.22174,-5.34745 0.22174,-9.63768l0,-7.78094" fill="#bf005f" id="svg_43"/>
  <path d="m100.74432,63.52244c-0.70617,-0.30924 -0.83992,-0.53097 -0.83992,-1.50371c0,-2.43066 0.17661,-5.08314 0.22041,-5.7911c0.04512,-0.66322 0.17831,-1.14784 0.53144,-1.14784c0.3973,0 0.44101,0.39636 0.44101,0.75176c0,0.57326 0.17699,1.50276 0.39778,2.25319c0.97226,3.27078 3.57944,4.46487 6.32066,4.46487c3.97778,0 5.92325,-2.69686 5.92325,-5.03784c0,-2.16636 -0.66435,-4.24587 -4.33176,-7.07298l-2.03326,-1.59338c-4.86226,-3.79938 -6.5406,-6.89552 -6.5406,-10.47779c0,-4.86227 4.06557,-8.35392 10.21349,-8.35392c2.87148,0 4.72822,0.4412 5.877,0.7527c0.39646,0.0859 0.61829,0.21947 0.61829,0.52871c0,0.57476 -0.17577,1.85674 -0.17577,5.30402c0,0.97321 -0.13328,1.32625 -0.48849,1.32625c-0.30791,0 -0.44006,-0.26317 -0.44006,-0.7965c0,-0.39533 -0.2207,-1.76707 -1.14973,-2.91491c-0.66312,-0.84124 -1.94453,-2.16635 -4.81601,-2.16635c-3.27077,0 -5.25966,1.89827 -5.25966,4.55076c0,2.03326 1.01568,3.58133 4.68386,6.36596l1.23751,0.92866c5.30403,4.10994 7.24855,7.07298 7.24855,11.2707c0,2.56376 -0.97226,5.6127 -4.1543,7.68938c-2.20883,1.41498 -4.68386,1.81332 -7.02673,1.81332c-2.56375,0 -4.55265,-0.31018 -6.45281,-1.14878" fill="#bf005f" id="svg_44"/>
  <path d="m148.22477,62.57849c-8.48513,0 -13.5645,-7.29292 -13.5645,-16.49072c0,-11.00641 5.79017,-13.83824 10.87425,-13.83824c7.24762,0 12.95093,6.14414 12.95093,16.04707c0,12.77158 -7.15888,14.28189 -10.25124,14.28189l-0.00944,0zm-1.85769,2.20978c11.22351,0 18.29366,-8.00088 18.29366,-18.12375s-6.85115,-16.52849 -17.85944,-16.52849c-13.25299,0 -18.2559,9.76984 -18.2559,17.33084c0,7.82436 5.12562,17.33084 17.81224,17.33084" fill="#bf005f" id="svg_45"/>
  <path d="m183.37787,43.75564c0,-3.49165 0,-7.33634 0.04484,-8.84005c0,-0.48622 0.13215,-0.70701 0.52861,-0.884c0.35511,-0.17558 1.98984,-0.30924 2.87337,-0.30924c3.44729,0 8.48512,0.53003 12.55447,4.41955c1.90111,1.81427 4.2402,5.43902 4.2402,11.0536c0,4.5536 -0.88372,8.5748 -3.71064,11.00641c-2.65155,2.29945 -5.65518,3.18298 -10.1663,3.18298c-3.49259,0 -5.21529,-0.92639 -5.7911,-1.76707c-0.35285,-0.48622 -0.44129,-2.25414 -0.48613,-3.35855c-0.04248,-0.84125 -0.08732,-4.24398 -0.08732,-8.92973l0,-5.57022l0,-0.00368zm-5.52396,8.4889c0,4.06463 0,7.55817 -0.21947,9.41302c-0.17822,1.28377 -0.39882,2.25414 -1.28282,2.43255c-0.39646,0.08684 -0.92866,0.17699 -1.59338,0.17699c-0.52861,0 -0.7056,0.13093 -0.7056,0.35266c0,0.30923 0.30791,0.44252 0.88372,0.44252c1.76895,0 4.55359,-0.13328 5.56833,-0.13328c2.21072,0 6.18757,0.52955 9.41303,0.52955c8.17645,0 12.77158,-3.13579 14.80106,-5.2153c2.47408,-2.51939 4.81601,-6.76242 4.81601,-12.32793c0,-5.25871 -2.07574,-8.92972 -4.28646,-11.23294c-4.81506,-5.0369 -12.19577,-5.0369 -17.71785,-5.0369c-2.65154,0 -5.43524,0.13319 -6.80585,0.13319c-1.23656,0 -4.0212,-0.13319 -6.36596,-0.13319c-0.65963,0 -0.97132,0.08685 -0.97132,0.39646c0,0.31018 0.26543,0.39863 0.75279,0.39863c0.61593,0 1.36967,0.04342 1.7227,0.13376c1.45745,0.30782 1.81143,1.01474 1.89828,2.5175c0.08967,1.41592 0.08967,2.65343 0.08967,9.37054l0,7.78094" fill="#bf005f" id="svg_46"/>
  <path d="m223.07963,43.69958c0,-6.71711 0,-7.95462 -0.0909,-9.37054c-0.08609,-1.50371 -0.44007,-2.20978 -1.89827,-2.5175c-0.35398,-0.08968 -1.10536,-0.13376 -1.72365,-0.13376c-0.48613,0 -0.75043,-0.08873 -0.75043,-0.39863c0,-0.30933 0.30914,-0.39645 0.97037,-0.39645c2.34287,0 5.12751,0.13319 6.36597,0.13319c1.41403,0 10.20405,0 11.04416,-0.04626c0.83898,-0.08684 1.54712,-0.17699 1.89922,-0.26543c0.22182,-0.04342 0.48613,-0.17473 0.70682,-0.17473s0.26544,0.17473 0.26544,0.39693c0,0.30877 -0.22069,0.83879 -0.35285,2.87243c-0.0437,0.44158 -0.13328,2.38818 -0.22296,2.91773c-0.04247,0.21938 -0.13102,0.48481 -0.44129,0.48481c-0.30792,0 -0.39759,-0.21928 -0.39759,-0.618c0,-0.30923 -0.04484,-1.06099 -0.26431,-1.59055c-0.30914,-0.79782 -0.75043,-1.32718 -2.95927,-1.59149c-0.75515,-0.08873 -5.39181,-0.17557 -6.27723,-0.17557c-0.2207,0 -0.30914,0.13083 -0.30914,0.44007l0,11.18575c0,0.30801 0.04483,0.48632 0.30914,0.48632c0.97226,0 6.05541,0 7.07109,-0.08968c1.05911,-0.08873 1.72365,-0.22163 2.12199,-0.66189c0.30792,-0.35483 0.48613,-0.57571 0.7056,-0.57571c0.17822,0 0.31037,0.08967 0.31037,0.35398c0,0.26553 -0.22183,0.9732 -0.35285,3.2264c-0.08967,0.88495 -0.17699,2.65249 -0.17699,2.9621c0,0.35257 0,0.84021 -0.39759,0.84021c-0.31037,0 -0.39881,-0.17699 -0.39881,-0.39778c-0.04248,-0.44243 -0.04248,-1.01852 -0.17577,-1.59338c-0.22069,-0.88268 -0.84011,-1.54713 -2.47408,-1.72365c-0.84011,-0.08778 -5.2153,-0.13092 -6.27723,-0.13092c-0.21947,0 -0.26431,0.17557 -0.26431,0.44016l0,3.49354c0,1.50182 -0.04484,5.56928 0,6.85021c0.08845,3.04895 0.7965,3.71349 5.30309,3.71349c1.14972,0 3.00646,0 4.15524,-0.52956c1.14784,-0.53097 1.67834,-1.45934 1.98701,-3.27266c0.08731,-0.48405 0.17699,-0.66104 0.48613,-0.66104c0.35398,0 0.35398,0.35162 0.35398,0.79414c0,1.01757 -0.35398,4.02215 -0.57345,4.90757c-0.31037,1.14878 -0.70796,1.14878 -2.38818,1.14878c-6.67181,0 -9.63768,-0.26647 -12.24297,-0.26647c-1.01569,0 -3.80032,0.13328 -5.56833,0.13328c-0.57581,0 -0.88373,-0.13328 -0.88373,-0.44252c0,-0.22173 0.17699,-0.35266 0.70683,-0.35266c0.66312,0 1.19409,-0.08967 1.59055,-0.17699c0.88372,-0.17831 1.10347,-1.14784 1.28282,-2.43254c0.22183,-1.85486 0.22183,-5.3484 0.22183,-9.41303l0,-7.78094" fill="#bf005f" id="svg_47"/>
  <path d="m168.4252,19.15701l141.30861,0l0,-1.78689l-141.30861,0l0,1.78689z" fill="#bf005f" id="svg_51"/>
  <path d="m10.50314,79.56951l299.23067,0l0,-1.78028l-299.23066,0l0,1.78028l-0.00001,0z" fill="#bf005f" id="svg_52"/>
  <path d="m163.89426,18.21306l-0.40476,0l0,-1.59527l-0.58638,0l0,-0.34331l1.57639,0l0,0.34331l-0.58525,0l0,1.59527" fill="#bf005f" id="svg_53"/>
  <path d="m166.53731,18.21306l-0.37871,0l0,-1.61981l-0.00472,0l-0.36106,1.61981l-0.39759,0l-0.35398,-1.61981l-0.00472,0l0,1.61981l-0.37758,0l0,-1.93886l0.58997,0l0.35039,1.52825l0.00566,0l0.3469,-1.52825l0.58525,0l0,1.93886" fill="#bf005f" id="svg_54"/>
  <path d="m46.37307,3.10994l-22.19216,0c-0.59591,0 -1.51881,0.38588 -2.17957,0.75166c-2.04836,1.11952 -2.89791,3.69838 -1.75574,5.72408c0.52814,0.93791 1.38005,1.66701 2.16636,2.49957c0.08713,0.09345 0.25118,0.24061 0.16878,0.41298c-0.0438,0.09345 -0.08166,0.10147 -0.13461,0.12261c-0.97415,0.017 -12.11082,-0.00094 -12.22409,-0.00094c-0.09581,0 -0.13971,0.04909 -0.13971,0.1853c0,0.06513 0.00472,4.70745 0.00472,4.86981c0,0.08024 0.00378,0.10969 0.18351,0.10969l10.27956,0c3.83147,0 8.14625,0.64292 9.24689,-3.14995c0.31008,-1.07138 0.27516,-2.3457 -0.22919,-3.3123c-0.33095,-0.63377 -0.73609,-1.18088 -1.28566,-1.71326c-0.50066,-0.51719 -1.04117,-1.01758 -1.55845,-1.55846c0.01567,0 -0.04616,-0.07268 0.08156,-0.07268c0.16273,0 0.64896,0.00944 0.77158,0.00944c2.13237,0 4.18451,0.00944 6.31688,0.00944c0,0.00943 0.12639,-0.0321 0.12639,0.13696c0,0.22306 0.00189,0.76781 0.00189,0.93659l0,8.62105c0,0.0859 0.02351,0.10138 0.09128,0.10138l5.47961,0c0.06815,0 0.06088,-0.05098 0.06088,-0.10969l0,-9.55273c0,-0.04625 -0.0185,-0.13696 0.07183,-0.13696l6.64066,0c0.05579,0 0.08996,-0.0151 0.08996,-0.08024l0,-4.70179c0,-0.10147 -0.03408,-0.09345 -0.08996,-0.09345" fill="#bf005f" id="svg_55"/>
  <path d="m78.08963,17.26912l6.75298,0c0.11762,0 0.12857,-0.02927 0.12857,-0.14008c0,-0.15717 -0.00566,-4.82828 -0.00566,-4.90097c0,-0.06985 -0.00567,-0.08023 -0.11469,-0.08023l-4.93401,0l-1.70854,0c-0.99963,0 -1.49049,0.02076 -1.8086,-0.28989c-0.08023,-0.04814 -0.05994,-0.11799 0.01331,-0.16783c0.25902,-0.18851 0.69682,-0.45668 1.02985,-0.69588c1.05061,-0.7662 1.70948,-1.81804 1.79349,-3.07537c0.16633,-2.49013 -1.465,-4.82545 -3.95135,-5.17471c-1.49143,-0.2089 -3.43974,-0.1735 -5.13506,-0.1735l-6.938,0c-0.03776,0 -0.08845,0.01888 -0.08845,0.08968l0,14.499c0,0.04814 0.00566,0.10978 0.10147,0.10978c2.05592,0 5.98745,0.00944 5.98745,0c0.08571,0 0.12026,-0.02549 0.12026,-0.11195l0,-3.97213l0.04569,0l0,0.04343c0.03313,0.01887 0.06409,0.03209 0.09448,0.04814c0.50879,0.48311 1.02135,0.9666 1.53203,1.44801c1.01757,0.94961 1.90205,1.90299 3.18864,2.31833c1.11197,0.35756 2.5883,0.22994 3.89661,0.22994l-0.00047,-0.00377zm-6.36786,-8.31522l-1.97945,0c-0.09449,0 -0.13781,-0.06985 -0.13781,-0.18888c0,-0.13102 0.01066,-1.36495 0.01066,-1.49615c0,-0.17114 0.0354,-0.23958 0.118,-0.23958l2.53449,0c0.58855,0 0.76091,0.04342 1.02795,0.15217c0.32302,0.13102 0.507,0.40108 0.52493,0.74902c0.05806,1.14406 -1.12612,1.01474 -2.09933,1.03173" fill="#bf005f" id="svg_56"/>
  <path d="m62.32574,17.26912c0.01709,0 0.00189,-0.03304 0.0185,-0.03304c-0.39183,-1.18465 -0.78498,-2.37403 -1.17804,-3.56056c-0.89873,-2.70818 -3.54357,-10.61939 -3.65307,-10.93089c-0.02586,-0.07457 -0.07183,-0.11799 -0.22636,-0.11799l-8.22459,0c-0.08996,0 -0.18898,0.02831 -0.21711,0.07646c-0.0438,0.12035 -0.7965,2.35891 -1.06571,3.19619c-0.78357,2.44294 -1.57167,4.88115 -2.35798,7.32408c-0.27006,0.82463 -1.10725,3.44728 -1.25922,3.95985c0,0 -0.03455,0.08118 0.04049,0.08118l4.94061,0c0.38174,0 0.60658,0.03775 0.76885,-0.13688c0.45262,-0.48858 0.48528,-1.63208 0.73741,-1.87278c0.05531,-0.05286 0.33557,-0.04626 0.42364,-0.04626c0.12262,0 4.23926,-0.00944 4.40917,-0.00944c0.18303,0 0.39042,0.03776 0.42865,0.07174c0.25344,0.22995 0.38852,1.29604 0.68907,1.83975c0.1364,0.20418 0.43139,0.1567 0.54617,0.16038l4.90569,0c0.11015,0 0.27327,0 0.27327,-0.01133l0.00056,0.00954zm-7.83757,-6.15925l-2.32305,0c-0.17095,0 -0.14433,-0.01793 -0.14433,-0.05663c0.02728,-0.07929 0.10704,-0.3351 0.13055,-0.40845c0.38201,-1.13934 0.74203,-2.24093 1.12423,-3.37838c0.00472,0.00944 0.02219,-0.04248 0.04012,-0.0472c0.01888,0 0.03691,0.03871 0.04154,0.0472c0.20502,0.63027 1.0827,3.3982 1.19881,3.78711c-0.01614,0.05947 -0.06693,0.05664 -0.06693,0.05664" fill="#bf005f" id="svg_57"/>
  <path d="m109.52301,17.26912c0.23485,-0.70239 3.27927,-10.14742 4.47052,-13.80992c0.04125,-0.12508 0.02596,-0.1381 -0.05899,-0.1381l-5.73447,0c-0.09553,0 -0.08024,0.01132 -0.11441,0.10968c-0.12384,0.35521 -0.76572,2.34854 -0.94866,2.93379c-0.07665,0.25722 -0.14273,0.48018 -0.24071,0.73741c0,0.01699 -0.03889,0.06607 -0.0555,0.06607c-0.02945,0 -0.05664,-0.0387 -0.07429,-0.07457c-0.06957,-0.22777 -1.10725,-3.33118 -1.19315,-3.56056c-0.06919,-0.19115 -0.19955,-0.21126 -0.33463,-0.21126l-5.93552,0c-0.20824,0 -0.24524,0.01983 -0.27139,0.0944c-0.11289,0.30678 -1.01946,3.16599 -1.12896,3.58699c-0.01236,0.05286 -0.04936,0.17463 -0.08901,0.17463c-0.0405,0 -0.07231,-0.05853 -0.09902,-0.16868c-0.15122,-0.50737 -0.88268,-3.07727 -1.0525,-3.59266c-0.0135,-0.04153 -0.07655,-0.09675 -0.24439,-0.09675c-1.18087,0 -5.38143,-0.00944 -6.07051,-0.00944c-0.09581,0 -0.07466,0.07363 -0.07089,0.10496c0.05154,0.18879 0.40193,1.2951 0.59554,1.88601c0.47839,1.40742 3.23018,9.72263 4.15241,12.49783c0.03682,0.10639 0.21248,0.08024 0.31755,0.08024c1.14123,0 4.4186,-0.00095 4.74332,-0.00095c0.26449,0 0.24646,-0.11119 0.30924,-0.29177c0.12073,-0.33973 1.25261,-3.52092 1.41025,-4.07218c0.10374,-0.35993 0.18426,-0.56052 0.31065,-0.93337c0,-0.01511 0.07882,-0.08024 0.07882,-0.09534c0.01794,0 0.05296,0.08023 0.06863,0.08023c0.07882,0.29366 1.68966,5.15583 1.76234,5.20775c0.01426,0.01227 0.01888,0.10421 0.22268,0.10421l4.86698,0c0.28554,0 0.29498,-0.29177 0.40826,-0.60299" fill="#bf005f" id="svg_58"/>
  <path d="m158.41938,17.26912c0.3823,-0.09449 0.82831,-0.26931 1.21863,-0.52031c1.31964,-0.85549 2.23338,-2.75065 1.86996,-4.28551c-0.4614,-1.9483 -1.19787,-2.79974 -3.16128,-4.4592c-0.32679,-0.25014 -0.08259,-0.2324 -0.01293,-0.23834c0.13687,0 6.12149,-0.00944 6.81434,-0.00944c0.23486,0 0.23835,0.0387 0.23835,-0.2207c0,-0.25722 -0.00378,-4.27607 -0.00378,-4.45731c0,-0.11327 -0.08844,-0.11327 -0.10496,-0.11327l-0.95244,0l-6.10827,0c-0.7646,0 -1.72365,0.01038 -2.51562,0.01038c-3.92115,0 -5.89588,3.40387 -4.12126,6.58497c0.34926,0.62772 0.9902,1.16766 1.55279,1.69438c0.23957,0.24892 0.47782,0.50048 0.71626,0.74949c0.17463,0.20286 0.30565,0.34426 -0.02718,0.34426l-7.18437,0c-0.79877,0 -1.19787,-0.12489 -1.364,-0.27148c-0.01652,-0.01416 -0.03304,-0.02926 -0.04843,-0.04437c0.31151,-0.26402 0.62414,-0.52955 0.93451,-0.79499c1.74441,-2.02287 1.84824,-5.21624 -0.47669,-6.95499c-0.73269,-0.5439 -1.51126,-0.96471 -2.43727,-1.12518c-0.7646,-0.13102 -1.58111,-0.19237 -2.94416,-0.19237c-2.72612,0 -8.42094,0.07457 -8.67675,0.07457c-0.13451,0 -0.21475,0 -0.21475,0.14867c-0.00094,1.28943 0.00378,12.7527 0.00378,14.25357c0,0.04814 0,0.11479 0.1027,0.11479c1.23846,0 5.71087,-0.00944 6.0403,-0.00944c0.09676,0 0.06608,-0.0978 0.06608,-0.21022l0,-4.14392l0.05428,0c0.03304,0.03209 0.07787,0.04342 0.08845,0.06419c1.31208,1.02418 2.16729,2.36081 3.48882,3.28493c0.54749,0.38664 1.14595,0.65812 1.80671,0.8319c0.8909,0.2323 1.95491,0.18161 2.98287,0.18161l4.08917,0l5.99877,0c1.36683,0 1.89261,-0.1852 2.28812,-0.28658l-0.00075,-0.00009zm-20.68184,-10.4306c0.38815,0 1.79538,0.01227 2.07479,0.01227c0.63244,0 1.23468,-0.01321 1.53485,0.10969c0.32208,0.12979 0.49916,0.42713 0.51681,0.77526c0.05777,1.14406 -1.12707,1.01568 -2.09744,1.03079l-2.01155,0c-0.10025,0 -0.09317,-0.01511 -0.09317,-0.18615c0,-0.28583 -0.00094,-0.90156 -0.00094,-1.50182c0,-0.19587 -0.00567,-0.23712 0.07787,-0.23712" fill="#bf005f" id="svg_59"/>
  <path d="m130.19541,17.26912c-0.34926,-1.15067 -0.75751,-2.35326 -1.09592,-3.38027c-0.89788,-2.70913 -3.54357,-10.58163 -3.65212,-10.88369c-0.02832,-0.07269 -0.07193,-0.11677 -0.22891,-0.11677l-8.22271,0c-0.08967,0 -0.18879,0.02832 -0.21824,0.07646c-0.04248,0.11922 -0.79527,2.31833 -1.06288,3.15467c-0.78583,2.44293 -1.57261,4.88397 -2.35892,7.32501c-0.27016,0.82501 -1.10914,3.44824 -1.26017,3.95985c0,0 -0.03303,0.08024 0.04135,0.08024l4.94061,0c0.3823,0 0.65019,0 0.76818,-0.13687c0.43658,-0.50888 0.48727,-1.63114 0.73987,-1.87279c0.05314,-0.05286 0.33274,-0.04437 0.42118,-0.04437c0.12272,0 4.23738,-0.00944 4.41012,-0.00944c0.18048,0 0.3906,0.03871 0.42836,0.07363c0.2525,0.22872 0.38938,1.25639 0.68795,1.79822c0.13687,0.20512 0.40589,0.16179 0.51917,0.16406l5.04538,0c0.17227,0 0.15217,-0.03776 0.09799,-0.1853l-0.00029,-0.00264zm-7.68371,-5.96479l-2.324,0c-0.17104,0 -0.14395,-0.01605 -0.14395,-0.0557c0.02832,-0.07929 0.10742,-0.335 0.13102,-0.4092c0.3823,-1.14028 0.74213,-2.23904 1.1233,-3.37743c0.00566,0.00944 0.0236,-0.04437 0.04248,-0.0472c0.01651,0 0.03539,0.0387 0.03889,0.0472c0.2053,0.62781 1.08459,3.39537 1.19975,3.78616c-0.01774,0.05853 -0.06721,0.05569 -0.06721,0.05569" fill="#bf005f" id="svg_60"/>
  <path d="m162.76153,17.26912l-0.4059,0l0,-1.59527l-0.58525,0l0,-0.34332l1.57639,0l0,0.34332l-0.58524,0l0,1.59527" fill="#bf005f" id="svg_61"/>
  <path d="m165.40457,17.26912l-0.37644,0l0,-1.62076l-0.00472,0l-0.36342,1.62076l-0.39646,0l-0.35398,-1.62076l-0.00472,0l0,1.62076l-0.37644,0l0,-1.93887l0.58996,0l0.3504,1.52825l0.00661,0l0.3434,-1.52825l0.58525,0l0,1.93887" fill="#bf005f" id="svg_62"/>
  <text fill="#bf005f" stroke-width="0" x="21.460938" y="105" id="svg_80" font-size="24" font-family="'Times New Roman', Times, serif" text-anchor="start" xml:space="preserve">THE PHANTOM MENACE</text>
  <text fill="#bf005f" stroke="null" stroke-width="0" stroke-opacity="null" x="255.25" y="63.5" id="svg_82" font-size="50" font-family="'Times New Roman', Times, serif" text-anchor="start" xml:space="preserve">I</text>
 </g>
</svg>