<svg width="321.5" height="110" xmlns="http://www.w3.org/2000/svg">
 <metadata>image/svg+xml</metadata>

 <g>
  <title>background</title>
  <rect x="-1" y="-1" width="323.5" height="112" id="canvas_background" fill="none"/>
 </g>
 <g>
  <title>Layer 1</title>
  <path d="m13.429375,43.699585c0,-6.717115 0,-7.954627 -0.088164,-9.370545c-0.088448,-1.503705 -0.441106,-2.209776 -1.900162,-2.517502c-0.353979,-0.089675 -1.10536,-0.133757 -1.723644,-0.133757c-0.485849,0 -0.75138,-0.088731 -0.75138,-0.398628c0,-0.309331 0.309708,-0.396457 0.97132,-0.396457c2.342872,0 5.127511,0.133191 6.365023,0.133191c1.41403,0 10.213488,0 11.04416,-0.046253c0.840206,-0.086843 1.547126,-0.17699 1.901106,-0.265437c0.220789,-0.043421 0.486226,-0.174724 0.707015,-0.174724c0.220411,0 0.265437,0.174724 0.265437,0.396929c0,0.308765 -0.221638,0.83879 -0.354357,2.872426c-0.043893,0.441578 -0.131964,2.388182 -0.220883,2.917735c-0.044554,0.219373 -0.132719,0.48481 -0.442522,0.48481c-0.308765,0 -0.397307,-0.219279 -0.397307,-0.618001c0,-0.309236 -0.043799,-1.060995 -0.265437,-1.590548c-0.308765,-0.797823 -0.750342,-1.327187 -2.960213,-1.591492c-0.751758,-0.088731 -5.390872,-0.175574 -6.276292,-0.175574c-0.220789,0 -0.308765,0.130831 -0.308765,0.440067l0,11.185752c0,0.308009 0.044743,0.486321 0.308765,0.486321c0.972264,0 6.055409,0 7.071094,-0.089675c1.060995,-0.088731 1.723644,-0.221638 2.121989,-0.661894c0.309236,-0.354829 0.486226,-0.575712 0.706543,-0.575712c0.17699,0 0.309708,0.089675 0.309708,0.353979c0,0.265532 -0.220789,0.973208 -0.353508,3.226405c-0.087976,0.884949 -0.176518,2.652486 -0.176518,2.9621c0,0.352564 0,0.840206 -0.397779,0.840206c-0.309236,0 -0.397307,-0.17699 -0.397307,-0.397779c-0.045215,-0.442427 -0.045215,-1.018517 -0.17699,-1.59338c-0.220789,-0.882683 -0.840678,-1.547126 -2.475025,-1.723644c-0.839734,-0.087787 -5.215298,-0.130925 -6.275349,-0.130925c-0.220789,0 -0.265437,0.175574 -0.265437,0.440162l0,3.493542c0,1.501817 -0.043799,5.569277 0,6.850211c0.08807,3.048943 0.795935,3.713481 5.304029,3.713481c1.148781,0 3.005522,0 4.153359,-0.529553c1.148781,-0.530969 1.680223,-1.459339 1.989837,-3.272658c0.087976,-0.484055 0.176518,-0.661045 0.485282,-0.661045c0.353508,0 0.353508,0.35162 0.353508,0.794141c0,1.017573 -0.353508,4.022151 -0.573824,4.907572c-0.31018,1.148781 -0.707487,1.148781 -2.387238,1.148781c-6.671806,0 -9.637682,-0.266476 -12.242971,-0.266476c-1.015685,0 -3.800324,0.133285 -5.56739,0.133285c-0.57524,0 -0.884005,-0.133285 -0.884005,-0.442522c0,-0.221733 0.17699,-0.352658 0.706543,-0.352658c0.663216,0 1.194091,-0.089675 1.591492,-0.17699c0.883533,-0.178311 1.104416,-1.147838 1.280934,-2.432547c0.220411,-1.854853 0.220411,-5.348394 0.220411,-9.413023l0,-7.780941" fill="#ff5656" id="svg_41"/>
  <path d="m45.901094,43.699585c0,-6.717115 0,-7.954627 -0.088448,-9.370545c-0.087126,-1.503705 -0.441578,-2.209776 -1.900162,-2.517502c-0.353508,-0.089675 -1.104416,-0.133757 -1.723644,-0.133757c-0.486226,0 -0.750342,-0.088731 -0.750342,-0.398628c0,-0.309331 0.309236,-0.396457 0.972264,-0.396457c2.34004,0 5.125623,0.133191 6.363135,0.133191c1.810487,0 4.375187,-0.133191 6.408445,-0.133191c5.523024,0 7.511917,1.85674 8.219876,2.518446c0.972264,0.927709 2.209776,2.916791 2.209776,5.258719c0,6.277236 -4.59607,10.694901 -10.87425,10.694901c-0.220789,0 -0.706543,0 -0.927332,-0.043421c-0.221733,-0.043421 -0.530969,-0.089675 -0.530969,-0.399006c0,-0.352658 0.309236,-0.485943 1.237512,-0.485943c2.474081,0 5.921369,-2.784639 5.921369,-7.291978c0,-1.458396 -0.132719,-4.420496 -2.607177,-6.630272c-1.590548,-1.458396 -3.402923,-1.723644 -4.418608,-1.723644c-0.663216,0 -1.326243,0.042478 -1.724588,0.175574c-0.220317,0.089675 -0.353508,0.353979 -0.353508,0.840206l0,17.680096c0,4.064629 0,7.55817 0.221733,9.458332c0.131775,1.238456 0.397779,2.207888 1.7227,2.386294c0.618095,0.086843 1.591492,0.17699 2.254141,0.17699c0.486226,0 0.707959,0.130925 0.707959,0.352658c0,0.309236 -0.354451,0.442522 -0.840678,0.442522c-2.915847,0 -5.70143,-0.133285 -6.849267,-0.133285c-1.017573,0 -3.802212,0.133285 -5.568334,0.133285c-0.574296,0 -0.884005,-0.133285 -0.884005,-0.442522c0,-0.221733 0.176046,-0.352658 0.707015,-0.352658c0.6618,0 1.193147,-0.089675 1.590548,-0.17699c0.884099,-0.178311 1.104416,-1.147838 1.281878,-2.432547c0.220789,-1.854853 0.220789,-5.348394 0.220789,-9.413023l0,-7.780941" fill="#ff5656" id="svg_42"/>
  <path d="m78.844787,43.699585c0,-6.717115 0,-7.954627 -0.089864,-9.370545c-0.08656,-1.503705 -0.529081,-2.255085 -1.501817,-2.475025c-0.485943,-0.133191 -1.060995,-0.17699 -1.590548,-0.17699c-0.442522,0 -0.708431,-0.088731 -0.708431,-0.442427c0,-0.265532 0.353979,-0.352658 1.060995,-0.352658c1.680223,0 4.463917,0.133191 5.746739,0.133191c1.104416,0 3.710649,-0.133191 5.390872,-0.133191c0.573352,0 0.928748,0.086843 0.928748,0.352658c0,0.353979 -0.265437,0.442427 -0.707959,0.442427c-0.441011,0 -0.794991,0.043421 -1.326243,0.133757c-1.193147,0.219279 -1.547126,0.972264 -1.633969,2.517502c-0.08892,1.415918 -0.08892,2.65343 -0.08892,9.370545l0,7.780941c0,4.2874 0,7.779053 0.175668,9.67544c0.133568,1.193147 0.442522,1.987949 1.768954,2.166355c0.618001,0.086843 1.590548,0.17699 2.254141,0.17699c0.486226,0 0.707109,0.130925 0.707109,0.352658c0,0.309236 -0.353602,0.442522 -0.840678,0.442522c-2.916791,0 -5.700486,-0.133285 -6.892689,-0.133285c-1.016629,0 -3.800324,0.133285 -5.568334,0.133285c-0.574768,0 -0.884005,-0.133285 -0.884005,-0.442522c0,-0.221733 0.176518,-0.352658 0.707015,-0.352658c0.661894,0 1.193147,-0.089675 1.590548,-0.17699c0.884005,-0.178311 1.149725,-0.928748 1.280934,-2.209776c0.221733,-1.855797 0.221733,-5.34745 0.221733,-9.637682l0,-7.780941" fill="#ff5656" id="svg_43"/>
  <path d="m100.744318,63.522437c-0.706166,-0.309236 -0.839923,-0.530969 -0.839923,-1.503705c0,-2.430659 0.176612,-5.083146 0.220411,-5.791105c0.045121,-0.663216 0.178311,-1.147838 0.531441,-1.147838c0.397307,0 0.441011,0.396363 0.441011,0.751758c0,0.573258 0.17699,1.502761 0.397779,2.253198c0.972264,3.270771 3.579441,4.464861 6.320658,4.464861c3.977786,0 5.923257,-2.696852 5.923257,-5.037836c0,-2.166355 -0.664349,-4.245866 -4.331765,-7.072982l-2.033258,-1.59338c-4.862262,-3.79938 -6.540597,-6.895521 -6.540597,-10.477793c0,-4.862262 4.065573,-8.353916 10.213488,-8.353916c2.871482,0 4.728222,0.4412 5.877004,0.752702c0.396457,0.085899 0.618284,0.219467 0.618284,0.528704c0,0.574768 -0.175763,1.85674 -0.175763,5.304029c0,0.973208 -0.133285,1.326243 -0.488492,1.326243c-0.307915,0 -0.440067,-0.263172 -0.440067,-0.796501c0,-0.395324 -0.220694,-1.767066 -1.149725,-2.914903c-0.663122,-0.841244 -1.944527,-2.166355 -4.816009,-2.166355c-3.270771,0 -5.259663,1.898274 -5.259663,4.55076c0,2.033258 1.015685,3.581329 4.683857,6.365967l1.237512,0.928653c5.304029,4.109938 7.248556,7.072982 7.248556,11.270707c0,2.563756 -0.972264,5.612699 -4.154303,7.689379c-2.208832,1.414974 -4.683857,1.813319 -7.026729,1.813319c-2.563756,0 -4.552648,-0.31018 -6.45281,-1.148781" fill="#ff5656" id="svg_44"/>
  <path d="m148.224768,62.578492c-8.485125,0 -13.564494,-7.292922 -13.564494,-16.490725c0,-11.006403 5.790161,-13.838239 10.87425,-13.838239c7.247612,0 12.95093,6.14414 12.95093,16.047071c0,12.77158 -7.158881,14.281893 -10.251246,14.281893l-0.009439,0l-0.000001,0zm-1.857684,2.209776c11.22351,0 18.29366,-8.000881 18.29366,-18.12375s-6.851155,-16.528483 -17.859446,-16.528483c-13.252992,0 -18.255903,9.769834 -18.255903,17.330836c0,7.824363 5.125623,17.330836 17.812248,17.330836" fill="#ff5656" id="svg_45"/>
  <path d="m183.377874,43.75564c0,-3.491654 0,-7.336343 0.044837,-8.840048c0,-0.486226 0.132152,-0.707015 0.528609,-0.884005c0.355112,-0.175574 1.989837,-0.309236 2.87337,-0.309236c3.447288,0 8.485125,0.530025 12.554473,4.419552c1.901106,1.814263 4.240202,5.439013 4.240202,11.0536c0,4.553592 -0.883722,8.574799 -3.710649,11.006403c-2.651542,2.299451 -5.655176,3.182984 -10.166291,3.182984c-3.492598,0 -5.215298,-0.926388 -5.791105,-1.767066c-0.352847,-0.486226 -0.441294,-2.254141 -0.486132,-3.358557c-0.042478,-0.841244 -0.087315,-4.243978 -0.087315,-8.929723l0,-5.570221l0,-0.003681l0.000001,-0.000002zm-5.523968,8.4889c0,4.064629 0,7.55817 -0.219467,9.413023c-0.178217,1.283766 -0.398817,2.254141 -1.282822,2.432547c-0.396457,0.086843 -0.928653,0.17699 -1.59338,0.17699c-0.528609,0 -0.705599,0.130925 -0.705599,0.352658c0,0.309236 0.307915,0.442522 0.883722,0.442522c1.768954,0 4.553592,-0.133285 5.568334,-0.133285c2.21072,0 6.187562,0.529553 9.413023,0.529553c8.176454,0 12.77158,-3.135786 14.801063,-5.215298c2.474081,-2.51939 4.816009,-6.762424 4.816009,-12.327926c0,-5.258719 -2.075736,-8.929723 -4.286456,-11.232949c-4.815065,-5.036892 -12.195774,-5.036892 -17.717854,-5.036892c-2.651542,0 -5.435237,0.133191 -6.805846,0.133191c-1.236568,0 -4.021207,-0.133191 -6.365967,-0.133191c-0.659629,0 -0.97132,0.086843 -0.97132,0.396457c0,0.31018 0.265437,0.398628 0.752796,0.398628c0.615924,0 1.369665,0.043421 1.7227,0.133757c1.457452,0.307821 1.811431,1.014741 1.898274,2.517502c0.089675,1.415918 0.089675,2.65343 0.089675,9.370545l0,7.780941" fill="#ff5656" id="svg_46"/>
  <path d="m223.079633,43.699585c0,-6.717115 0,-7.954627 -0.090902,-9.370545c-0.086088,-1.503705 -0.440067,-2.209776 -1.898274,-2.517502c-0.353979,-0.089675 -1.10536,-0.133757 -1.723644,-0.133757c-0.486132,0 -0.750437,-0.088731 -0.750437,-0.398628c0,-0.309331 0.309142,-0.396457 0.970376,-0.396457c2.342872,0 5.127511,0.133191 6.365967,0.133191c1.41403,0 10.204049,0 11.04416,-0.046253c0.838979,-0.086843 1.547126,-0.17699 1.899218,-0.265437c0.221827,-0.043421 0.486132,-0.174724 0.706826,-0.174724s0.265437,0.174724 0.265437,0.396929c0,0.308765 -0.220694,0.83879 -0.352847,2.872426c-0.043705,0.441578 -0.133285,2.388182 -0.22296,2.917735c-0.042478,0.219373 -0.13102,0.48481 -0.441294,0.48481c-0.307915,0 -0.39759,-0.219279 -0.39759,-0.618001c0,-0.309236 -0.044837,-1.060995 -0.264305,-1.590548c-0.309142,-0.797823 -0.750437,-1.327187 -2.959269,-1.591492c-0.755156,-0.088731 -5.391816,-0.175574 -6.277236,-0.175574c-0.220694,0 -0.309142,0.130831 -0.309142,0.440067l0,11.185752c0,0.308009 0.044837,0.486321 0.309142,0.486321c0.972264,0 6.055409,0 7.071094,-0.089675c1.059107,-0.088731 1.723644,-0.221638 2.121989,-0.661894c0.307915,-0.354829 0.486132,-0.575712 0.705599,-0.575712c0.178217,0 0.310369,0.089675 0.310369,0.353979c0,0.265532 -0.221827,0.973208 -0.352847,3.226405c-0.089675,0.884949 -0.17699,2.652486 -0.17699,2.9621c0,0.352564 0,0.840206 -0.39759,0.840206c-0.310369,0 -0.398817,-0.17699 -0.398817,-0.397779c-0.042478,-0.442427 -0.042478,-1.018517 -0.175763,-1.59338c-0.220694,-0.882683 -0.840111,-1.547126 -2.474081,-1.723644c-0.840111,-0.087787 -5.215298,-0.130925 -6.277236,-0.130925c-0.219467,0 -0.264305,0.175574 -0.264305,0.440162l0,3.493542c0,1.501817 -0.044837,5.569277 0,6.850211c0.088448,3.048943 0.796501,3.713481 5.303085,3.713481c1.149725,0 3.006466,0 4.155247,-0.529553c1.147838,-0.530969 1.678335,-1.459339 1.987005,-3.272658c0.087315,-0.484055 0.17699,-0.661045 0.486132,-0.661045c0.353979,0 0.353979,0.35162 0.353979,0.794141c0,1.017573 -0.353979,4.022151 -0.573447,4.907572c-0.310369,1.148781 -0.707959,1.148781 -2.388182,1.148781c-6.671806,0 -9.637682,-0.266476 -12.242971,-0.266476c-1.015685,0 -3.800324,0.133285 -5.568334,0.133285c-0.575807,0 -0.883722,-0.133285 -0.883722,-0.442522c0,-0.221733 0.17699,-0.352658 0.706826,-0.352658c0.663122,0 1.194091,-0.089675 1.590548,-0.17699c0.883722,-0.178311 1.103472,-1.147838 1.282822,-2.432547c0.221827,-1.854853 0.221827,-5.348394 0.221827,-9.413023l0,-7.780941" fill="#ff5656" id="svg_47"/>
  <path d="m168.425198,19.157007l141.308616,0l0,-1.786889l-141.308616,0l0,1.786889z" fill="#ff5656" id="svg_51"/>
  <path d="m10.503145,79.569508l299.23067,0l0,-1.780281l-299.23067,0l0,1.780281z" fill="#ff5656" id="svg_52"/>
  <path d="m163.894261,18.213062l-0.404764,0l0,-1.595268l-0.586379,0l0,-0.343313l1.576389,0l0,0.343313l-0.585246,0l0,1.595268" fill="#ff5656" id="svg_53"/>
  <path d="m166.537308,18.213062l-0.378711,0l0,-1.61981l-0.00472,0l-0.361059,1.61981l-0.39759,0l-0.353979,-1.61981l-0.00472,0l0,1.61981l-0.377578,0l0,-1.938864l0.589966,0l0.350393,1.528247l0.005664,0l0.3469,-1.528247l0.585246,0l0,1.938864" fill="#ff5656" id="svg_54"/>
  <path d="m46.373067,3.109936l-22.192155,0c-0.595913,0 -1.518808,0.385885 -2.17957,0.751664c-2.048361,1.119519 -2.897912,3.698378 -1.755738,5.724084c0.528137,0.937904 1.380048,1.667007 2.166355,2.499567c0.087126,0.093451 0.251184,0.240612 0.168777,0.412976c-0.043799,0.093451 -0.081651,0.101474 -0.134607,0.122618c-0.974152,0.016991 -12.110819,-0.000944 -12.224092,-0.000944c-0.09581,0 -0.139704,0.049085 -0.139704,0.185296c0,0.065132 0.00472,4.707455 0.00472,4.869814c0,0.080235 0.003776,0.109686 0.183503,0.109686l10.279565,0c3.831474,0 8.146248,0.642921 9.246888,-3.149946c0.310086,-1.071378 0.27516,-2.345704 -0.22919,-3.312304c-0.330947,-0.633765 -0.736089,-1.180876 -1.285654,-1.713261c-0.500669,-0.517188 -1.041172,-1.017573 -1.558454,-1.558454c0.015669,0 -0.046159,-0.072684 0.081557,-0.072684c0.162736,0 0.648962,0.009439 0.771581,0.009439c2.132373,0 4.18451,0.009439 6.316882,0.009439c0,0.009439 0.126394,-0.032094 0.126394,0.136966c0,0.223054 0.001888,0.767805 0.001888,0.936583l0,8.621053c0,0.085899 0.023504,0.10138 0.09128,0.10138l5.479603,0c0.068153,0 0.060884,-0.050973 0.060884,-0.109686l0,-9.552727c0,-0.046253 -0.018501,-0.136966 0.071834,-0.136966l6.640655,0c0.055787,0 0.089958,-0.015103 0.089958,-0.080235l0,-4.701792c0,-0.101474 -0.034076,-0.093451 -0.089958,-0.093451" fill="#ff5656" id="svg_55"/>
  <path d="m78.08963,17.269116l6.752985,0c0.117616,0 0.128565,-0.029262 0.128565,-0.140081c0,-0.157167 -0.005664,-4.82828 -0.005664,-4.900964c0,-0.069852 -0.005664,-0.080235 -0.114689,-0.080235l-4.934002,0l-1.708541,0c-0.999638,0 -1.49049,0.020767 -1.808599,-0.289886c-0.080235,-0.048141 -0.059941,-0.117993 0.01331,-0.167833c0.259019,-0.188506 0.69682,-0.456681 1.029844,-0.695876c1.050611,-0.7662 1.709485,-1.818039 1.793496,-3.075374c0.166323,-2.490128 -1.465003,-4.825449 -3.951355,-5.174708c-1.491434,-0.208895 -3.439737,-0.173497 -5.135063,-0.173497l-6.937998,0c-0.037758,0 -0.088448,0.018879 -0.088448,0.089675l0,14.499c0,0.048141 0.005664,0.109781 0.101474,0.109781c2.055913,0 5.987445,0.009439 5.987445,0c0.08571,0 0.120259,-0.025487 0.120259,-0.111952l0,-3.972122l0.045687,0l0,0.043421c0.033132,0.018879 0.064094,0.032094 0.094489,0.048141c0.508787,0.483111 1.021349,0.9666 1.532023,1.448012c1.017573,0.949609 1.90205,1.902994 3.188647,2.31833c1.111968,0.357566 2.588298,0.229945 3.896606,0.229945l-0.000472,-0.003776l0.000001,-0.000001zm-6.367855,-8.315214l-1.979453,0c-0.094489,0 -0.137816,-0.069852 -0.137816,-0.188883c0,-0.13102 0.010667,-1.364945 0.010667,-1.496153c0,-0.171137 0.035398,-0.239573 0.117993,-0.239573l2.534493,0c0.58855,0 0.760914,0.043421 1.027956,0.152164c0.323018,0.13102 0.506993,0.401082 0.524928,0.749021c0.058053,1.144062 -1.126127,1.014741 -2.099334,1.031732" fill="#ff5656" id="svg_56"/>
  <path d="m62.325743,17.269116c0.017085,0 0.001888,-0.033038 0.018501,-0.033038c-0.391832,-1.184651 -0.784985,-2.374023 -1.178044,-3.560562c-0.89873,-2.708179 -3.543571,-10.619385 -3.653068,-10.930887c-0.025864,-0.074572 -0.071834,-0.117993 -0.226358,-0.117993l-8.224596,0c-0.089958,0 -0.188978,0.028318 -0.217107,0.07646c-0.043799,0.120353 -0.796501,2.358919 -1.065714,3.196199c-0.783569,2.442931 -1.571669,4.881141 -2.357975,7.324072c-0.270063,0.824631 -1.107248,3.447288 -1.259223,3.959851c0,0 -0.034548,0.081179 0.040495,0.081179l4.94061,0c0.381731,0 0.606579,0.037758 0.768843,-0.136872c0.452622,-0.488586 0.485282,-1.632081 0.73741,-1.872788c0.055315,-0.052861 0.335573,-0.046253 0.423643,-0.046253c0.122618,0 4.239258,-0.009439 4.409169,-0.009439c0.183031,0 0.390416,0.037758 0.428646,0.07174c0.253449,0.229945 0.388528,1.296037 0.68908,1.839749c0.1364,0.204175 0.431383,0.156695 0.546167,0.160376l4.905684,0c0.110158,0 0.273272,0 0.273272,-0.011327l0.000566,0.009534l-0.000001,-0.000001zm-7.837578,-6.159243l-2.323049,0c-0.170948,0 -0.144329,-0.017935 -0.144329,-0.056637c0.02728,-0.079291 0.107043,-0.335101 0.130548,-0.408445c0.382015,-1.139342 0.742035,-2.240926 1.124239,-3.37838c0.00472,0.009439 0.022183,-0.042478 0.040118,-0.047197c0.018879,0 0.036908,0.038702 0.041534,0.047197c0.205025,0.630272 1.082705,3.398203 1.198811,3.787109c-0.016141,0.059469 -0.066926,0.056637 -0.066926,0.056637" fill="#ff5656" id="svg_57"/>
  <path d="m109.52301,17.269116c0.234854,-0.70239 3.279266,-10.147412 4.470525,-13.80992c0.04125,-0.125073 0.025958,-0.138099 -0.058997,-0.138099l-5.734468,0c-0.095527,0 -0.080235,0.011327 -0.114406,0.109686c-0.123846,0.355207 -0.765728,2.348536 -0.948665,2.933782c-0.076648,0.257225 -0.142725,0.480185 -0.240706,0.73741c0,0.016991 -0.038891,0.066076 -0.055504,0.066076c-0.029451,0 -0.056637,-0.038702 -0.074288,-0.074572c-0.069569,-0.227774 -1.107248,-3.331183 -1.193147,-3.560562c-0.069191,-0.191149 -0.19955,-0.211255 -0.334629,-0.211255l-5.935528,0c-0.208234,0 -0.245237,0.019823 -0.271384,0.094395c-0.112896,0.306782 -1.019461,3.165993 -1.128959,3.586992c-0.012366,0.052861 -0.049368,0.17463 -0.089014,0.17463c-0.040495,0 -0.072306,-0.058525 -0.09902,-0.168683c-0.15122,-0.507371 -0.882683,-3.077262 -1.052499,-3.592656c-0.013498,-0.041534 -0.076554,-0.096754 -0.244387,-0.096754c-1.180876,0 -5.381432,-0.009439 -6.070512,-0.009439c-0.09581,0 -0.074666,0.073628 -0.07089,0.104967c0.051539,0.188789 0.401932,1.295093 0.595535,1.886003c0.478391,1.407422 3.230181,9.722637 4.152416,12.497836c0.036814,0.106383 0.212482,0.080235 0.317543,0.080235c1.14123,0 4.418608,-0.000944 4.743325,-0.000944c0.264493,0 0.246464,-0.111197 0.309236,-0.291774c0.120731,-0.339726 1.252615,-3.520916 1.410254,-4.07218c0.10374,-0.359926 0.184258,-0.560515 0.310652,-0.933373c0,-0.015103 0.078819,-0.080235 0.078819,-0.095338c0.017935,0 0.052955,0.080235 0.068625,0.080235c0.078819,0.293661 1.689662,5.155829 1.762346,5.207746c0.014254,0.012271 0.018879,0.104212 0.222677,0.104212l4.866982,0c0.285543,0 0.294983,-0.291774 0.408256,-0.602992" fill="#ff5656" id="svg_58"/>
  <path d="m158.419378,17.269116c0.382298,-0.094489 0.828312,-0.269308 1.218633,-0.520303c1.319636,-0.855498 2.233375,-2.750657 1.869956,-4.285512c-0.4614,-1.948303 -1.197867,-2.799742 -3.161273,-4.459198c-0.326794,-0.250146 -0.082595,-0.232399 -0.012932,-0.238346c0.136872,0 6.121485,-0.009439 6.814341,-0.009439c0.234854,0 0.238346,0.038702 0.238346,-0.220694c0,-0.257225 -0.003776,-4.276072 -0.003776,-4.45731c0,-0.113273 -0.088448,-0.113273 -0.104967,-0.113273l-0.952441,0l-6.10827,0c-0.764596,0 -1.723644,0.010383 -2.515614,0.010383c-3.921149,0 -5.895883,3.403867 -4.121265,6.584963c0.34926,0.627724 0.990199,1.16766 1.55279,1.694382c0.239573,0.248918 0.477825,0.50048 0.716266,0.749493c0.17463,0.202854 0.305649,0.344257 -0.027186,0.344257l-7.184368,0c-0.798767,0 -1.197867,-0.124884 -1.364001,-0.271479c-0.016519,-0.014159 -0.033038,-0.029262 -0.048424,-0.044365c0.311502,-0.264022 0.624137,-0.529553 0.934506,-0.794991c1.744411,-2.022875 1.848245,-5.216242 -0.476692,-6.954989c-0.73269,-0.543901 -1.511256,-0.964712 -2.437267,-1.125183c-0.764596,-0.13102 -1.581108,-0.192376 -2.944165,-0.192376c-2.726114,0 -8.420936,0.074572 -8.676745,0.074572c-0.134512,0 -0.214748,0 -0.214748,0.148671c-0.000944,1.289429 0.003776,12.752701 0.003776,14.253574c0,0.048141 0,0.114784 0.102701,0.114784c1.238456,0 5.710869,-0.009439 6.040306,-0.009439c0.096754,0 0.066076,-0.097793 0.066076,-0.210217l0,-4.14392l0.054277,0c0.033038,0.032094 0.077875,0.043421 0.088448,0.064188c1.312084,1.024181 2.167298,2.360807 3.488822,3.28493c0.547488,0.38664 1.14595,0.658119 1.806711,0.831899c0.890896,0.232305 1.954911,0.181615 2.982867,0.181615l4.089171,0l5.998773,0c1.366833,0 1.89261,-0.185202 2.288123,-0.286582l-0.000755,-0.000094l0,-0.000001zm-20.681842,-10.430596c0.38815,0 1.795384,0.012271 2.074792,0.012271c0.632443,0 1.23468,-0.013215 1.534855,0.109686c0.322074,0.129792 0.499158,0.427135 0.51681,0.775262c0.057769,1.144062 -1.127071,1.015685 -2.097447,1.030788l-2.011547,0c-0.100247,0 -0.093167,-0.015103 -0.093167,-0.186146c0,-0.285827 -0.000944,-0.901562 -0.000944,-1.501817c0,-0.195869 -0.005664,-0.237119 0.077875,-0.237119" fill="#ff5656" id="svg_59"/>
  <path d="m130.195412,17.269116c-0.34926,-1.150669 -0.757516,-2.353256 -1.095921,-3.380268c-0.897881,-2.709123 -3.543571,-10.581627 -3.652124,-10.88369c-0.028318,-0.072684 -0.071929,-0.116766 -0.228907,-0.116766l-8.222708,0c-0.089675,0 -0.188789,0.028318 -0.21824,0.07646c-0.042478,0.11922 -0.795274,2.31833 -1.062882,3.154665c-0.785834,2.442931 -1.572613,4.883973 -2.358919,7.325016c-0.270157,0.825008 -1.109136,3.448232 -1.260167,3.959851c0,0 -0.033038,0.080235 0.041345,0.080235l4.94061,0c0.382298,0 0.65019,0 0.768183,-0.136872c0.436575,-0.508881 0.487265,-1.631138 0.739864,-1.872788c0.053144,-0.052861 0.332741,-0.044365 0.421188,-0.044365c0.122713,0 4.237371,-0.009439 4.410113,-0.009439c0.180482,0 0.390605,0.038702 0.428362,0.073628c0.252505,0.228718 0.389377,1.256391 0.687947,1.798216c0.136872,0.205119 0.405896,0.161792 0.51917,0.164058l5.045388,0c0.17227,0 0.152164,-0.037758 0.097982,-0.185296l-0.000283,-0.002643l-0.000001,-0.000002zm-7.683715,-5.964791l-2.323993,0c-0.171043,0 -0.143952,-0.016047 -0.143952,-0.055693c0.028318,-0.079291 0.107421,-0.335006 0.13102,-0.4092c0.382298,-1.140286 0.74213,-2.239038 1.123295,-3.377436c0.005664,0.009439 0.023599,-0.044365 0.042478,-0.047197c0.016519,0 0.035398,0.038702 0.038891,0.047197c0.205308,0.627818 1.084593,3.395371 1.199755,3.786165c-0.017746,0.058525 -0.067209,0.055693 -0.067209,0.055693" fill="#ff5656" id="svg_60"/>
  <path d="m162.761526,17.269116l-0.405896,0l0,-1.595268l-0.585246,0l0,-0.343313l1.576389,0l0,0.343313l-0.585246,0l0,1.595268" fill="#ff5656" id="svg_61"/>
  <path d="m165.404573,17.269116l-0.376445,0l0,-1.620754l-0.00472,0l-0.363419,1.620754l-0.396457,0l-0.353979,-1.620754l-0.00472,0l0,1.620754l-0.376445,0l0,-1.938864l0.589966,0l0.350393,1.528247l0.006608,0l0.343407,-1.528247l0.585246,0l0,1.938864" fill="#ff5656" id="svg_62"/>
  <text fill="#ff5656" stroke-width="0" x="2.070313" y="105" id="svg_80" font-size="24" font-family="'Times New Roman', Times, serif" text-anchor="start" xml:space="preserve">THE EMPIRE STRIKES BACK</text>
  <text fill="#ff5656" stroke="null" stroke-width="0" stroke-opacity="null" x="255.25" y="63.5" id="svg_82" font-size="50" font-family="'Times New Roman', Times, serif" text-anchor="start" xml:space="preserve">V</text>
 </g>
</svg>