<svg width="150" height="35" xmlns="http://www.w3.org/2000/svg">
 <g>
  <title>background</title>
  <rect x="-1" y="-1" width="152" height="37" id="canvas_background" fill="none"/>
 </g>

 <g>
  <title>Layer 1</title>
  <g stroke="null" id="svg_3">
   <path stroke="null" fill-rule="evenodd" clip-rule="evenodd" d="m0.25,17.75c0,-9.526888 8.068292,-17.25 18.020978,-17.25c9.952686,0 18.020978,7.723112 18.020978,17.25c0,9.526888 -8.068292,17.25 -18.020978,17.25c-9.952686,0 -18.020978,-7.723112 -18.020978,-17.25zm27.230449,-4.259887c-0.221057,-0.812906 -0.872441,-1.453025 -1.699528,-1.670303c-1.498895,-0.394809 -7.509942,-0.394809 -7.509942,-0.394809c0,0 -6.011048,0 -7.510018,0.394809c-0.827163,0.217278 -1.478546,0.857397 -1.699604,1.670303c-0.401567,1.473294 -0.401567,4.547387 -0.401567,4.547387c0,0 0,3.07395 0.401567,4.547388c0.221057,0.812906 0.872441,1.453025 1.699604,1.670375c1.49897,0.394738 7.510018,0.394738 7.510018,0.394738c0,0 6.011048,0 7.509942,-0.394738c0.827088,-0.21735 1.478471,-0.857469 1.699528,-1.670375c0.401718,-1.473437 0.401718,-4.547388 0.401718,-4.547388c0,0 0,-3.074094 -0.401718,-4.547387z" fill="#012232" id="svg_1"/>
   <path stroke="null" fill-rule="evenodd" clip-rule="evenodd" d="m16.468881,21.2l0,-5.75l4.805594,2.875072l-4.805594,2.874928z" fill="#012232" id="svg_2"/>
   <g stroke="null" id="svg_9">
    <path stroke="null" fill-rule="evenodd" clip-rule="evenodd" d="m39.807707,17.666424c0,-9.413023 7.932767,-17.043834 17.718279,-17.043834c9.785511,0 17.718286,7.630811 17.718286,17.043834c0,9.413023 -7.932775,17.043834 -17.718286,17.043834c-9.785504,0 -17.718279,-7.630811 -17.718279,-17.043834zm17.719165,-9.090046c-2.566413,0 -2.888523,0.010796 -3.896466,0.054898c-1.006029,0.044311 -1.692688,0.197563 -2.29356,0.42233c-0.621544,0.232149 -1.148732,0.542778 -1.674006,1.048196c-0.525642,0.505281 -0.848563,1.012402 -1.090712,1.610072c-0.23425,0.578213 -0.393713,1.238945 -0.438969,2.206253c-0.045105,0.969651 -0.056916,1.279641 -0.056916,3.748367c0,2.468727 0.011443,2.777645 0.057066,3.747232c0.046284,0.967732 0.205529,1.628249 0.439044,2.206253c0.241556,0.597878 0.564402,1.105006 1.089894,1.610287c0.525056,0.505633 1.052245,0.816967 1.673421,1.049188c0.60124,0.224767 1.288117,0.377947 2.293928,0.422258c1.008018,0.044174 1.329903,0.05497 3.896098,0.05497c2.566645,0 2.887712,-0.010796 3.895738,-0.05497c1.005954,-0.044311 1.693424,-0.197491 2.294739,-0.422258c0.621318,-0.232221 1.147696,-0.543555 1.672752,-1.049188c0.525642,-0.505281 0.848555,-1.01241 1.090705,-1.610079c0.232328,-0.578213 0.391799,-1.238945 0.439044,-2.206253c0.045255,-0.969651 0.057066,-1.278714 0.057066,-3.74744c0,-2.468727 -0.011811,-2.778501 -0.057066,-3.748152c-0.047245,-0.967732 -0.206716,-1.628256 -0.439044,-2.206253c-0.242149,-0.597885 -0.565063,-1.105006 -1.090705,-1.610287c-0.525642,-0.505633 -1.051284,-0.816184 -1.673345,-1.048196c-0.602494,-0.22476 -1.289521,-0.378019 -2.29555,-0.42233c-1.008026,-0.044103 -1.328874,-0.054898 -3.896106,-0.054898l0.002951,0z" fill="#012232" id="svg_6"/>
    <path stroke="null" fill-rule="evenodd" clip-rule="evenodd" d="m56.679127,10.214503c0.251603,-0.000352 0.532362,0 0.847744,0c2.523087,0 2.822153,0.00874 3.81851,0.052267c0.921353,0.040552 1.42145,0.188622 1.75456,0.313044c0.440958,0.164752 0.755387,0.361682 1.085907,0.679837c0.330738,0.318147 0.535531,0.621173 0.707181,1.045422c0.129338,0.320002 0.283493,0.801061 0.325421,1.687338c0.045255,0.958223 0.055152,1.246118 0.055152,3.672029c0,2.425903 -0.009897,2.713799 -0.055152,3.672022c-0.042154,0.886276 -0.196083,1.367343 -0.325421,1.687337c-0.171282,0.424249 -0.376443,0.726283 -0.707181,1.044293c-0.330745,0.318148 -0.644723,0.515078 -1.085907,0.67983c-0.332735,0.124991 -0.833207,0.272708 -1.75456,0.313253c-0.996132,0.043535 -1.295423,0.052979 -3.81851,0.052979c-2.523305,0 -2.822371,-0.009444 -3.81851,-0.052979c-0.921345,-0.040904 -1.42145,-0.189046 -1.754695,-0.313461c-0.441041,-0.164759 -0.756055,-0.361689 -1.0868,-0.679837c-0.330738,-0.318155 -0.535456,-0.620396 -0.707106,-1.044789c-0.129346,-0.320067 -0.283493,-0.801061 -0.325421,-1.687337c-0.04533,-0.958288 -0.054341,-1.246118 -0.054341,-3.673589c0,-2.427463 0.00901,-2.713799 0.054341,-3.672022c0.042079,-0.886276 0.196076,-1.367343 0.325421,-1.687762c0.171274,-0.424185 0.376368,-0.72721 0.707106,-1.045357c0.330745,-0.318155 0.645759,-0.515078 1.0868,-0.680261c0.333103,-0.124991 0.83335,-0.272701 1.754695,-0.313397c0.871742,-0.037849 1.209568,-0.049213 2.970766,-0.051132l0,0.002271zm5.891996,1.509303c-0.626049,0 -1.13397,0.488096 -1.13397,1.090452c0,0.602219 0.507921,1.090804 1.13397,1.090804c0.626041,0 1.13397,-0.488585 1.13397,-1.090804c0,-0.602212 -0.507929,-1.090452 -1.13397,-1.090452zm-5.044252,1.274523c-2.680035,0 -4.852884,2.090218 -4.852884,4.668166c0,2.57802 2.172849,4.667239 4.852884,4.667239c2.680042,0 4.852081,-2.089219 4.852081,-4.667239c0,-2.577948 -2.172038,-4.668166 -4.852081,-4.668166z" fill="#012232" id="svg_7"/>
    <path stroke="null" fill-rule="evenodd" clip-rule="evenodd" d="m57.526872,14.636461c1.739573,0 3.149947,1.356547 3.149947,3.030034c0,1.673351 -1.410374,3.030042 -3.149947,3.030042c-1.739783,0 -3.149939,-1.356691 -3.149939,-3.030042c0,-1.673487 1.410157,-3.030034 3.149939,-3.030034z" fill="#012232" id="svg_8"/>
   </g>
   <g stroke="null" id="svg_14">
    <path stroke="null" fill-rule="evenodd" clip-rule="evenodd" d="m77.778757,17.833576c0,-9.464033 8.054153,-17.136186 17.989397,-17.136186c9.935243,0 17.989397,7.672153 17.989397,17.136186c0,9.464033 -8.054153,17.136193 -17.989397,17.136193c-9.935243,0 -17.989397,-7.67216 -17.989397,-17.136193zm19.864487,10.075725l0,-9.323014l2.701638,0l0.358062,-3.212755l-3.059699,0l0.004573,-1.608016c0,-0.837962 0.08358,-1.286929 1.347031,-1.286929l1.688979,0l0,-3.213107l-2.702081,0c-3.245661,0 -4.387988,1.558537 -4.387988,4.179517l0,1.928895l-2.023133,0l0,3.212748l2.023133,0l0,9.322662l4.049487,0z" fill="#012232" id="svg_13"/>
   </g>
   <g stroke="null" id="svg_20">
    <path stroke="null" d="m132.787666,0.91727c-9.615176,0 -17.40997,7.573799 -17.40997,16.916011c0,9.341924 7.794794,16.916601 17.40997,16.916601c9.615468,0 17.410563,-7.574389 17.410563,-16.916601c0,-9.342212 -7.795094,-16.916011 -17.410563,-16.916011zm8.498919,12.71348c0,0 0.413927,1.993338 -1.0714,5.495059c-1.48592,3.501721 -5.162808,6.814196 -10.227483,7.1219c-5.064976,0.307409 -7.792984,-1.869318 -7.792984,-1.869318c3.799108,0.284007 5.479203,-1.230227 6.380207,-1.727171c-3.53088,-0.449564 -4.042346,-3.028467 -4.042346,-3.028467c0.340777,0.142154 1.387788,0.094767 1.948023,-0.047092c-3.45743,-0.828043 -3.53058,-4.211307 -3.53058,-4.211307s1.290249,0.638803 2.020873,0.520346c-3.336411,-2.460741 -1.387788,-5.678456 -1.387788,-5.678456c4.407503,4.684856 9.082633,4.424539 9.082633,4.424539l0.021077,0.030712c-0.084894,-0.329935 -0.130652,-0.675072 -0.130652,-1.03045c0,-2.342284 1.954345,-4.240855 4.365056,-4.240855c1.273392,0 2.419452,0.530294 3.217503,1.375594l0.027692,-0.015209c1.558176,-0.094767 2.703027,-0.89912 2.703027,-0.89912c-0.474432,1.346636 -1.482308,1.974032 -1.903165,2.185208c0.005421,0.012578 0.010535,0.025156 0.015355,0.03744c0.544579,-0.12811 2.005517,-0.475302 2.399576,-0.589957c-0.852843,1.513946 -2.094623,2.146604 -2.094623,2.146604z" id="svg_19" fill="#012232"/>
   </g>
  </g>
 </g>
</svg>