<svg width="30" height="35" xmlns="http://www.w3.org/2000/svg">
 <title/>
 <desc/>

 <g>
  <title>background</title>
  <rect fill="none" id="canvas_background" height="37" width="32" y="-1" x="-1"/>
 </g>
 <g>
  <title>Layer 1</title>
  <g stroke="null" id="Page-1" fill-rule="evenodd" fill="none">
   <g stroke="null" id="star-wars-copy">
    <g stroke="null" id="stormtrooper">
     <path stroke="null" id="Fill-17" fill="#ECECEC" d="m26.464343,18.062495l0,-5.645834l-11.464343,0l-11.464343,0l0,5.645834c0,0 -4.806426,3.871913 0.970648,10.960823c-0.005732,0.110658 -0.015286,0.219058 -0.015286,0.330846c0,3.11763 2.352101,5.645834 5.25449,5.645834c2.902389,0 5.25449,-2.528205 5.25449,-5.645834c0,3.11763 2.352101,5.645834 5.25449,5.645834c2.902389,0 5.25449,-2.528205 5.25449,-5.645834c0,-0.111788 -0.009554,-0.220188 -0.015286,-0.330846c5.777073,-7.08891 0.970648,-10.960823 0.970648,-10.960823"/>
     <path stroke="null" id="Fill-19" fill="#ECECEC" d="m19.314988,1.124992l-8.629784,0c-3.948511,0 -7.149928,3.782709 -7.149928,8.449556l0,0.583779l22.928685,0l0,-0.583779c0,-4.666847 -3.200462,-8.449556 -7.148973,-8.449556"/>
     <path stroke="null" id="Fill-21" fill="#323232" d="m7.357106,18.062495c-1.910724,0 -1.910724,-4.516667 -1.910724,-4.516667l7.642895,0c0,0 -3.821448,4.516667 -5.732171,4.516667"/>
     <path stroke="null" id="Fill-23" fill="#323232" d="m20.254491,32.741665c-0.79104,0 -1.433043,-0.7588 -1.433043,-1.69375c0,-0.93495 0.642003,-1.69375 1.433043,-1.69375c0.79104,0 1.433043,0.7588 1.433043,1.69375c0,0.93495 -0.642003,1.69375 -1.433043,1.69375"/>
     <path stroke="null" id="Fill-25" fill="#323232" d="m9.74551,32.741665c-0.79104,0 -1.433043,-0.7588 -1.433043,-1.69375c0,-0.93495 0.642003,-1.69375 1.433043,-1.69375c0.79104,0 1.433043,0.7588 1.433043,1.69375c0,0.93495 -0.642003,1.69375 -1.433043,1.69375"/>
     <path stroke="null" id="Fill-27" fill="#323232" d="m22.642896,18.062495c-1.910724,0 -5.732171,-4.516667 -5.732171,-4.516667l7.642895,0c0,0 0,4.516667 -1.910724,4.516667"/>
     <path stroke="null" id="Fill-29" fill="#323232" d="m15.955363,29.353712l0,-1.129167c0,-0.6233 -0.428002,-1.129167 -0.955362,-1.129167c-0.52736,0 -0.955362,0.505867 -0.955362,1.129167l0,1.129167c-0.52736,0 -0.955362,0.505867 -0.955362,1.129167l0,2.258334c0,0.6233 0.428002,1.129167 0.955362,1.129167l0,0c0,0.624429 0.428002,1.129167 0.955362,1.129167c0.52736,0 0.955362,-0.504738 0.955362,-1.129167l0,0c0.52736,0 0.955362,-0.505867 0.955362,-1.129167l0,-2.258334c0,-0.6233 -0.428002,-1.129167 -0.955362,-1.129167"/>
     <path stroke="null" opacity="0.5" id="Fill-31" fill="#FFFFFF" d="m5.433485,11.287494c-0.246483,0 -0.447109,-0.235996 -0.447109,-0.52845c0,-4.366488 3.005568,-7.918847 6.700908,-7.918847c0.246483,0 0.446154,0.235996 0.446154,0.52845c0,0.291325 -0.199671,0.527321 -0.446154,0.527321c-3.202373,0 -5.80669,3.079238 -5.80669,6.863076c0,0.292454 -0.200626,0.52845 -0.447109,0.52845"/>
     <path stroke="null" id="Fill-33" fill="#323232" d="m26.464248,10.158327l-22.928685,0l0,2.258334l22.928685,0l0,-2.258334z"/>
     <path stroke="null" id="Fill-35" fill="#505050" d="m22.404055,23.143746c0,0 -0.552199,-0.070008 -1.661374,-0.622171c-0.58086,-0.287938 -1.274453,-0.883008 -2.007215,-1.5176c-0.731807,-0.631204 -1.566793,-1.280475 -2.357833,-1.580834c-0.412716,-0.156954 -0.905683,-0.228092 -1.377632,-0.231479c-0.471949,0.003388 -0.964916,0.074525 -1.377632,0.231479c-0.79104,0.300358 -1.626026,0.949629 -2.357833,1.580834c-0.732763,0.634592 -1.426355,1.229663 -2.007215,1.5176c-1.109175,0.552163 -1.661374,0.622171 -1.661374,0.622171c-0.13184,0 -0.23884,0.126467 -0.23884,0.282292c0,0.155825 0.107001,0.282292 0.23884,0.282292l0.716521,0c0,0 0.178653,-0.012421 0.379279,-0.033875c0.181519,-0.015808 0.55411,-0.09485 0.895174,-0.2168c0.72512,-0.231479 1.592588,-0.744121 2.394137,-1.231921c0.803459,-0.488929 1.577302,-0.875104 2.130457,-0.972213c0.359216,-0.072267 0.630539,-0.103883 0.888487,-0.105013c0.257948,0.001129 0.52927,0.032746 0.888487,0.105013c0.553155,0.097108 1.326998,0.483283 2.130457,0.972213c0.801549,0.4878 1.669017,1.000442 2.394137,1.231921c0.341064,0.12195 0.713655,0.200992 0.895174,0.2168c0.200626,0.021454 0.379279,0.033875 0.379279,0.033875l0.716521,0c0.13184,0 0.23884,-0.126467 0.23884,-0.282292c0,-0.155825 -0.107001,-0.282292 -0.23884,-0.282292"/>
     <path stroke="null" id="Fill-36" fill="#323232" d="m18.821448,22.699532c0.322912,0.185183 0.645825,0.359075 0.955362,0.502479l0,-1.325642c-0.30476,-0.239383 -0.626717,-0.513771 -0.955362,-0.798321l0,1.621484z"/>
     <path stroke="null" id="Fill-37" fill="#323232" d="m15.955363,21.271814c0.2761,0.057588 0.599967,0.177279 0.955362,0.346654l0,-1.942167c-0.178653,-0.097108 -0.357305,-0.186313 -0.533092,-0.252933c-0.130885,-0.049683 -0.278966,-0.076783 -0.42227,-0.109529l0,1.957975z"/>
     <path stroke="null" id="Fill-38" fill="#323232" d="m11.178553,22.699532c-0.322912,0.185183 -0.645825,0.359075 -0.955362,0.502479l0,-1.325642c0.30476,-0.239383 0.626717,-0.513771 0.955362,-0.798321l0,1.621484z"/>
     <path stroke="null" id="Fill-39" fill="#323232" d="m14.044639,21.271814c-0.2761,0.057588 -0.599967,0.177279 -0.955362,0.346654l0,-1.942167c0.178653,-0.097108 0.357305,-0.186313 0.533092,-0.252933c0.130885,-0.049683 0.278966,-0.076783 0.42227,-0.109529l0,1.957975z"/>
    </g>
   </g>
  </g>
 </g>
</svg>